# xmcd CD database file
#
# Track frame offsets:
#	150
#	14160
#	28494
#	41163
#	53742
#	68084
#	82085
#	95252
#	108684
#	121952
#	135284
#	148802
#	162292
#	175519
#	188614
#	201747
#	214751
#	227805
#	242543
#	256308
#	270285
#	284093
#	297497
#	310440
#	324240
#
# Disc length: 4501 seconds
#
# Revision: 0
# Processed by: cddbd v1.5.2PL0 Copyright (c) Steve Scherf et al.
# Submitted via: CDex 1.51
#
DISCID=7f119319
DTITLE=Red Nichols - The Complete Brunswick Recordings - Volume 1
DYEAR=1900
DGENRE=Jazz
TTITLE0=Washboard Blues 1
TTITLE1=Washboard Blues 2
TTITLE2=That's No Bargain 1
TTITLE3=That's No Bargain 2
TTITLE4=Boneyard Shuffle 1
TTITLE5=Boneyard Shuffle 2
TTITLE6=Buddy's Habits
TTITLE7=Alabama Stomp 1
TTITLE8=Alabama Stomp 2
TTITLE9=Alabama Stomp 3
TTITLE10=Hurricane 1
TTITLE11=Hurricane 2
TTITLE12=Bugle Call Rag
TTITLE13=Back Beats
TTITLE14=Cornfed 1
TTITLE15=Cornfed 2
TTITLE16=Five Pennies
TTITLE17=Mean Dog Blues
TTITLE18=Riverboat Shuffle 1
TTITLE19=Riverboat Shuffle 2
TTITLE20=Eccentric
TTITLE21=Ida! Sweet As Apple Cider 1
TTITLE22=Ida! Sweet As Apple Cider 2
TTITLE23=Feelin' No Pain 1
TTITLE24=Feelin' No Pain 2
EXTD=
EXTT0=
EXTT1=
EXTT2=
EXTT3=
EXTT4=
EXTT5=
EXTT6=
EXTT7=
EXTT8=
EXTT9=
EXTT10=
EXTT11=
EXTT12=
EXTT13=
EXTT14=
EXTT15=
EXTT16=
EXTT17=
EXTT18=
EXTT19=
EXTT20=
EXTT21=
EXTT22=
EXTT23=
EXTT24=
PLAYORDER=
